# xmcd
#
# Track frame offsets:
#	150
#	14933
#	32919
#	47874
#	61867
#	84411
#	104814
#	125902
#	145497
#	167103
#	185754
#	202075
#	221354
#	239061
#	255020
#	269280
#
# Disc length: 3840 seconds
#
# Revision: 0
# Processed by: cddbd v1.4PL0 Copyright (c) Steve Scherf et al.
# Submitted via: dBpowerAMP V4.0
#
DISCID=fe0efe10
DTITLE=Thai Song - X-tra Hot Disc 1
DYEAR=2001
DGENRE=MUSIC
TTITLE0=Salad Sabad
TTITLE1=Oh Oh Oh - China Dolls
TTITLE2=I am still the same
TTITLE3=All my love  - Seven
TTITLE4=No More Chance
TTITLE5=This One
TTITLE6=Miss You - Silly Fools
TTITLE7=Empty Hands
TTITLE8=Accept - Blackhead
TTITLE9=Stop Deceieving Yourself - Dragon
TTITLE10=Chao Chum Pee
TTITLE11=100 % - Wuttisit
TTITLE12=Lover - Y not
TTITLE13=Just a Second
TTITLE14=Sawaddee Love
TTITLE15=Pak Mai Trong Kab Jai - Ray
EXTD=[Thai Song] X-tra Hot Disc 1
EXTT0=
EXTT1=
EXTT2=
EXTT3=
EXTT4=
EXTT5=
EXTT6=
EXTT7=
EXTT8=
EXTT9=
EXTT10=
EXTT11=
EXTT12=
EXTT13=
EXTT14=
EXTT15=
PLAYORDER=
